# xmcd CD database file
#
# Track frame offsets:
#	150
#	14857
#	51315
#	62795
#	94825
#	102407
#	111868
#	132023
#	144685
#	175371
#
# Disc length: 2662 seconds
#
# Revision: 0
# Processed by: cddbd v1.4PL0 Copyright (c) Steve Scherf et al.
# Submitted via: CDex 1.50Beta7
#
DISCID=960a640a
DTITLE=TONY SCOTT - Music for ZEN meditation
DYEAR=1964
DGENRE=New Age
TTITLE0=Is Not All One?
TTITLE1=The Murmuring Sound Of The Mountain Stream
TTITLE2=A Quivering Leaf, Ask The Winds
TTITLE3=After Yhe Snow, The Fragrance
TTITLE4=To Drift Like Clouds
TTITLE5=Za-Zen
TTITLE6=Prajna-Paramita-Hridaya
TTITLE7=Sutra
TTITLE8=Moment Of Truth
TTITLE9=Satori
EXTD=YEAR: 1964
EXTT0=
EXTT1=
EXTT2=
EXTT3=
EXTT4=
EXTT5=
EXTT6=
EXTT7=
EXTT8=
EXTT9=
PLAYORDER=
